<?xml version="1.0" standalone="no"?>
<!DOCTYPE svg PUBLIC "-//W3C//DTD SVG 20010904//EN"
 "http://www.w3.org/TR/2001/REC-SVG-20010904/DTD/svg10.dtd">
<svg version="1.0" xmlns="http://www.w3.org/2000/svg"
 width="275.000000pt" height="183.000000pt" viewBox="0 0 275.000000 183.000000"
 preserveAspectRatio="xMidYMid meet">

<g transform="translate(0.000000,183.000000) scale(0.100000,-0.100000)"
fill="#000000" stroke="none">
<path d="M1395 1709 c-195 -30 -368 -134 -412 -248 -47 -121 -2 -253 113 -332
44 -30 46 -33 40 -68 -3 -20 -11 -85 -17 -146 -6 -60 -13 -112 -15 -114 -1 -2
-30 18 -63 44 -52 41 -59 50 -50 67 6 11 8 27 4 36 -6 15 -10 13 -31 -11 l-24
-29 -11 31 c-12 33 -36 41 -45 16 -4 -8 -12 -15 -19 -15 -22 0 -29 -92 -11
-128 9 -17 20 -33 25 -37 6 -3 8 -12 5 -19 -3 -8 10 -23 32 -37 l38 -23 -30
-8 c-95 -27 -174 46 -159 147 4 29 3 36 -4 25 -17 -25 -24 -113 -12 -158 14
-51 52 -97 102 -122 44 -23 149 -40 198 -32 l34 5 -7 -36 c-6 -35 -25 -222
-26 -260 0 -12 15 -25 45 -38 58 -26 59 -45 3 -41 -31 2 -53 -3 -78 -20 l-35
-22 55 -7 c30 -4 78 -7 107 -8 l52 -1 -11 31 c-6 16 -9 31 -7 33 2 1 55 0 117
-2 l112 -4 0 -34 0 -34 73 1 c39 1 85 4 101 8 l28 6 -22 20 c-17 15 -36 20
-81 20 -72 -1 -79 18 -13 34 l47 12 -4 162 c-4 141 -2 161 11 157 8 -2 47 -4
85 -4 56 0 80 5 120 26 128 67 163 168 103 296 -27 56 -39 62 -21 10 18 -52
10 -90 -28 -133 -53 -60 -168 -84 -215 -44 -12 10 -12 14 6 26 32 23 24 67
-14 71 l-29 4 6 59 c4 32 12 79 18 104 9 37 15 45 28 39 105 -45 201 -51 267
-16 83 43 141 142 132 225 -4 38 -23 66 -140 213 -140 175 -220 259 -277 289
-41 21 -117 27 -196 14z m222 -45 c29 -20 76 -63 104 -95 105 -121 270 -335
275 -357 10 -38 -6 -109 -34 -151 -56 -83 -144 -120 -241 -101 -61 11 -121 36
-121 49 0 5 12 37 26 70 26 60 26 60 50 44 39 -25 33 -12 -19 40 -44 44 -47
46 -32 17 16 -32 16 -35 -13 -109 -16 -42 -32 -84 -35 -94 -6 -15 -12 -13 -56
18 -79 57 -150 78 -251 73 -47 -3 -94 -8 -104 -13 -18 -8 -19 -5 -12 41 3 26
16 83 27 125 20 74 22 77 54 83 19 4 37 11 40 16 4 6 -4 6 -20 0 -15 -6 -50
-11 -78 -12 -37 -1 -43 -2 -19 -5 21 -3 31 -9 28 -16 -2 -7 -13 -47 -23 -89
-11 -50 -23 -78 -31 -78 -8 0 -40 26 -72 58 -92 92 -111 188 -59 299 48 101
214 194 397 223 100 15 158 6 219 -36z m-166 -642 c35 -18 76 -43 90 -56 25
-21 26 -27 18 -67 -4 -24 -8 -63 -9 -85 0 -60 -19 -71 -65 -39 -21 14 -47 25
-59 25 -12 0 -38 9 -59 20 -43 23 -69 25 -100 8 -12 -7 -40 -13 -62 -13 -22 0
-51 -4 -63 -9 l-24 -8 7 79 c14 146 16 155 55 169 22 9 67 13 121 11 74 -3 96
-8 150 -35z m-532 -84 c10 -28 -7 -57 -20 -36 -12 18 -11 58 1 58 6 0 14 -10
19 -22z m56 -35 c-9 -21 -30 -59 -47 -86 l-30 -48 -24 33 c-23 31 -33 75 -15
63 6 -3 7 9 4 30 -3 20 -1 35 4 35 14 0 35 -49 27 -63 -4 -7 4 -2 18 11 13 12
29 22 35 22 7 0 15 9 18 20 3 11 11 20 16 20 5 0 2 -17 -6 -37z m67 -72 l56
-45 -41 -31 c-71 -54 -83 -58 -117 -40 l-30 16 27 37 27 37 -34 -30 c-31 -27
-32 -28 -17 -5 10 14 27 44 39 68 12 23 25 41 28 40 3 -2 30 -23 62 -47z m315
-26 c7 -21 2 -25 -38 -31 -40 -6 -64 7 -56 30 9 22 85 22 94 1z m248 -45 c11
-17 -5 -50 -24 -50 -28 0 -46 26 -31 45 14 17 46 20 55 5z m-256 -49 c31 -47
119 -138 153 -157 14 -8 17 -32 20 -174 l3 -165 -65 -12 c-90 -17 -208 -16
-290 3 l-69 15 -5 52 c-12 107 -13 110 -15 38 0 -47 -5 -71 -10 -65 -10 9 4
225 17 278 6 22 17 33 47 43 21 7 54 25 73 40 20 15 32 20 27 12 -4 -8 -5 -12
-2 -8 13 11 67 119 67 134 0 28 18 16 49 -34z"/>
<path d="M1315 1342 c74 -79 183 -124 295 -120 51 1 52 2 10 5 -125 8 -219 45
-298 116 l-47 41 40 -42z"/>
<path d="M1210 1010 c-10 -6 -2 -7 25 -3 49 7 58 13 19 13 -16 0 -36 -5 -44
-10z"/>
<path d="M1383 993 c9 -2 25 -2 35 0 9 3 1 5 -18 5 -19 0 -27 -2 -17 -5z"/>
<path d="M1216 903 c-12 -13 -6 -53 9 -53 9 0 15 9 15 24 0 26 -12 40 -24 29z"/>
<path d="M1414 875 c-7 -18 2 -45 15 -45 5 0 11 7 15 15 7 18 -2 45 -15 45 -5
0 -12 -7 -15 -15z"/>
<path d="M1291 638 c-9 -14 -8 -25 5 -49 21 -42 8 -51 -22 -14 l-23 30 15 -50
c8 -27 14 -57 13 -65 -3 -34 2 -50 16 -50 8 0 15 7 15 15 0 8 -4 15 -10 15 -5
0 -10 5 -10 10 0 6 12 8 28 5 l27 -5 -26 10 c-15 6 -29 20 -32 31 -4 15 -2 19
10 15 28 -11 33 5 12 46 -29 56 -14 67 45 33 26 -15 48 -26 50 -24 2 2 -20 18
-49 35 -50 29 -53 30 -64 12z"/>
<path d="M1163 546 c-55 -55 -60 -65 -55 -91 5 -24 7 -26 10 -9 2 11 21 38 42
59 40 39 40 39 40 13 0 -29 24 -56 35 -38 3 6 11 8 16 4 6 -3 5 4 -3 15 -13
22 -13 22 -16 1 -2 -11 -8 -18 -13 -15 -12 8 -11 72 2 97 19 36 5 27 -58 -36z
m-3 -31 c-44 -45 -50 -50 -50 -40 0 11 73 85 83 85 6 0 -9 -20 -33 -45z"/>
<path d="M1154 476 c-8 -22 3 -33 18 -18 9 9 9 15 0 24 -9 9 -13 7 -18 -6z"/>
<path d="M1358 473 c7 -3 16 -2 19 1 4 3 -2 6 -13 5 -11 0 -14 -3 -6 -6z"/>
<path d="M1097 395 c3 -38 7 -72 9 -74 7 -8 2 84 -6 114 -5 18 -6 2 -3 -40z"/>
<path d="M1120 345 c0 -8 7 -15 15 -15 8 0 15 7 15 15 0 8 -7 15 -15 15 -8 0
-15 -7 -15 -15z"/>
<path d="M1270 335 c0 -8 7 -15 15 -15 8 0 15 7 15 15 0 8 -7 15 -15 15 -8 0
-15 -7 -15 -15z"/>
</g>
</svg>
